<mxfile host="app.diagrams.net" modified="2020-07-22T06:34:26.471Z" agent="5.0 (Macintosh; Intel Mac OS X 10_14_6) AppleWebKit/537.36 (KHTML, like Gecko) Chrome/83.0.4103.116 Safari/537.36" etag="XVqWe4bs64-htVFul0qv" version="13.4.9" type="github">
  <diagram id="6wYPi2yt_My6mKfW1Drv" name="Page-1">
    <mxGraphModel dx="786" dy="447" grid="1" gridSize="10" guides="1" tooltips="1" connect="1" arrows="1" fold="1" page="1" pageScale="1" pageWidth="850" pageHeight="1100" math="0" shadow="0">
      <root>
        <mxCell id="0" />
        <mxCell id="1" parent="0" />
      </root>
    </mxGraphModel>
  </diagram>
</mxfile>
